<?xml version="1.0" encoding="UTF-8"?>
<svg id="Layer_2" data-name="Layer 2" xmlns="http://www.w3.org/2000/svg" viewBox="0 0 62.6 63.85">
  <g id="Layer_1-2" data-name="Layer 1">
    <g>
      <path d="M28.05,63.85c-.79-.29-1.61-.51-2.37-.87-1.37-.65-2.4-1.69-3.12-3.03-.16-.3-.33-.45-.71-.44-4.55,.08-7.87-3.57-8.03-7.41,0-.06-.04-.11-.06-.17-.54,0-1.08,.03-1.61,0-.64-.04-1.02-.43-1-.97,.02-.52,.44-.93,1.07-.91,1.61,.07,3.02-.4,4.31-1.34,.55-.4,1.12-.3,1.42,.16,.3,.46,.17,1.01-.38,1.39-.46,.32-.93,.63-1.43,.87-.36,.17-.48,.39-.45,.77,.22,2.42,1.39,4.21,3.6,5.2,2.16,.97,4.25,.67,6.17-.73,.15-.11,.28-.25,.43-.36,.54-.42,1.08-.41,1.44,.02,.36,.42,.32,1.02-.22,1.41-.75,.55-1.56,1.01-2.35,1.5-.14,.09-.3,.14-.5,.23,1.19,1.88,2.88,2.86,5.05,2.79,2.22-.07,3.87-1.17,4.99-3.29-.47,0-.84,.02-1.2,0-.63-.04-1.03-.43-1.02-.95,.01-.52,.42-.91,1.05-.94,.52-.02,1.04,0,1.61,0v-6.91c-1.2,.06-2.41,.02-3.59,.2-1.12,.17-1.97,1.28-2.11,2.43-.02,.14,0,.29-.04,.43-.11,.52-.53,.86-1.01,.82-.49-.05-.82-.44-.83-.99-.04-1.93,1.33-3.88,3.22-4.43,.74-.21,1.55-.23,2.33-.29,.66-.04,1.33,0,2.04,0v-12.83c-.27,0-.51,0-.76,0-4.61,0-9.23,0-13.84,0-.96,0-1.42-.29-1.44-.9-.02-.65,.46-.98,1.44-.98,4.61,0,9.23,0,13.84,0,.24,0,.49,0,.77,0v-15.72c-.94,0-1.85,0-2.76,0-1.6,0-3.2,.02-4.8,0-2.69-.05-4.83-2.15-4.9-4.75-.02-.7,.29-1.1,.87-1.12,.57-.02,.93,.35,1,1.03,.17,1.73,1.29,2.89,3.05,2.94,2.49,.07,4.98,.02,7.52,.02v-6.23c-.53,0-1.07,0-1.6,0-.64-.01-1.04-.36-1.06-.9-.02-.56,.4-.95,1.07-.96,.52,0,1.03,0,1.54,0,.41-1.9-1.35-4.57-3.5-5.34-2.69-.97-5.67,.08-6.9,2.45,.54,.28,1.11,.53,1.63,.86,2.37,1.52,3.64,3.69,3.74,6.51,.02,.66-.34,1.1-.9,1.12-.53,.01-.93-.38-.97-1.01-.07-1.37-.46-2.62-1.34-3.67-1.44-1.72-3.3-2.52-5.52-2.2-2.39,.34-4.09,1.68-4.87,3.99-.28,.82-.31,1.74-.34,2.62-.03,1.01-.43,1.39-1.44,1.17-3.04-.66-5.61,.48-7.03,3.14-.73,1.36-.85,3.01-.34,4.45,1.17-.18,2.33-.36,3.48-.52,.24-.03,.52-.02,.73,.07,.43,.18,.63,.54,.54,1.01-.09,.54-.49,.73-.98,.8-.8,.12-1.61,.18-2.39,.37-4.38,1.11-7.24,5.76-6.31,10.2,.54,2.55,2.08,4.76,3.97,5.76,.95-.77,1.83-1.55,2.78-2.22,.61-.44,1.33-.11,1.45,.54,.11,.57-.21,.89-.65,1.15-1.39,.84-2.33,2.05-2.75,3.63-.48,1.81-.14,3.49,.93,5.03,.13,.19,.27,.37,.4,.56,.3,.47,.26,.91-.16,1.28-.39,.34-.95,.28-1.33-.16-.95-1.09-1.55-2.35-1.81-3.77-.26-1.42-.11-2.81,.39-4.21C1.93,39.04,.02,36.01,0,31.98c-.02-4.04,1.85-7.1,5.18-9.28-1.99-6.06,2.94-11.37,8.56-10.65,.11-.6,.19-1.22,.34-1.81,.91-3.43,4-5.84,7.55-5.84,.55,0,.79-.2,1.04-.65C24.22,.95,27.69-.55,30.83,.19c3.26,.77,5.65,3.54,5.84,6.78,.01,.2,.04,.41,.07,.67,.65,0,1.27,.03,1.89-.02,.15-.01,.33-.25,.42-.43,.61-1.15,1.87-1.89,3.05-1.78,1.43,.14,2.54,1.04,2.9,2.36,.42,1.54-.4,3.18-1.88,3.77-1.49,.6-3.22,.02-3.96-1.41-.25-.48-.53-.62-1.05-.61-1.4,.04-1.4,.01-1.4,1.41,0,1.35,0,2.7,0,4.05,0,.22,0,.45,0,.73,.99,0,1.89,0,2.8,0,1.5,0,2.99,.02,4.49-.02,.33,0,.73-.12,.95-.33,1.11-1.06,2.17-2.18,3.28-3.3-.56-1-.69-2.08-.15-3.17,.75-1.49,2.48-2.14,4.02-1.53,1.53,.6,2.35,2.3,1.87,3.88-.48,1.57-2.11,2.55-3.72,2.17-.42-.1-.65,0-.92,.27-.99,1.01-2,2-3,3-.6,.6-1.31,.91-2.17,.9-2.45-.02-4.9,0-7.41,0v3.87c.22,0,.44,0,.66,0,3.05,0,6.11,.01,9.16,0,.89,0,1.62,.28,2.23,.91,.53,.53,1.07,1.05,1.59,1.59,.5,.52,.53,1.08,.11,1.48-.41,.39-.93,.35-1.43-.13-.53-.5-1.01-1.05-1.56-1.53-.23-.21-.57-.41-.86-.42-3.28-.03-6.56-.02-9.9-.02v5.37c.68,0,1.35,.03,2.03-.02,.16-.01,.34-.3,.45-.5,.69-1.24,2.02-1.89,3.41-1.63,1.35,.25,2.39,1.33,2.59,2.69,.19,1.33-.53,2.67-1.77,3.29-1.56,.77-3.45,.14-4.24-1.45-.18-.36-.37-.49-.75-.47-.55,.03-1.11,0-1.71,0v6.76c.2,.01,.4,.04,.59,.04,2.83,0,5.65,0,8.48,0,.4,0,.62-.09,.8-.48,.65-1.35,2.15-2.04,3.53-1.71,1.49,.36,2.49,1.6,2.5,3.1,0,1.51-1.02,2.77-2.53,3.13-1.38,.32-2.83-.4-3.53-1.74-.1-.18-.33-.42-.49-.42-3.09-.03-6.19-.02-9.34-.02v6.21c.18,.01,.36,.04,.54,.04,2.33,0,4.65,0,6.98,.01,.38,0,.57-.09,.75-.46,.67-1.38,2.13-2.04,3.58-1.69,1.43,.35,2.45,1.61,2.47,3.06,.02,1.44-1.03,2.76-2.48,3.12-1.42,.35-2.9-.35-3.58-1.72-.14-.28-.27-.46-.63-.45-2.43,.02-4.86,0-7.29,.01-.1,0-.2,.02-.34,.04v4.93c1,0,1.99,0,2.98,0,3.1-.01,2.82-.13,5,2.06,.12,.12,.25,.22,.35,.35,.36,.48,.77,.57,1.38,.43,1.67-.37,3.36,.81,3.66,2.47,.31,1.76-.79,3.42-2.47,3.75-1.75,.33-3.5-.8-3.74-2.53-.08-.6,.09-1.25,.22-1.87,.06-.29,.09-.47-.14-.7-.59-.55-1.14-1.16-1.74-1.7-.2-.18-.5-.36-.76-.37-1.56-.03-3.11-.02-4.79-.02,0,.6,0,1.18,0,1.75,.03,2.4-.81,4.42-2.64,6.01-1.02,.89-2.21,1.45-3.55,1.69-.12,.02-.23,.08-.34,.12h-2.12Zm14.02-35.45c-.73,0-1.32,.57-1.31,1.28,0,.68,.59,1.25,1.28,1.26,.71,0,1.33-.6,1.32-1.29-.01-.68-.59-1.24-1.28-1.25Zm8.68,9.97c.01-.7-.6-1.32-1.29-1.32-.68,0-1.27,.59-1.28,1.27-.02,.7,.59,1.32,1.29,1.31,.68,0,1.27-.58,1.28-1.26Zm-1.61,8.09c0-.69-.57-1.26-1.26-1.26-.72,0-1.29,.57-1.29,1.3,0,.69,.57,1.26,1.26,1.27,.7,.01,1.3-.59,1.29-1.3ZM41.9,7.33c-.71,0-1.26,.55-1.27,1.25,0,.72,.58,1.3,1.29,1.3,.71,0,1.3-.61,1.27-1.32-.02-.69-.6-1.23-1.3-1.22Zm9.02,1.72c-.68,0-1.28,.57-1.3,1.25-.02,.69,.61,1.32,1.3,1.32,.67,0,1.28-.59,1.3-1.26,.02-.68-.6-1.3-1.3-1.3Zm-3.95,48.02c-.71,.01-1.25,.55-1.25,1.26,0,.72,.58,1.3,1.3,1.29,.72-.01,1.28-.6,1.25-1.33-.02-.7-.58-1.22-1.3-1.21Z" fill="#6ebe44"/>
      <path d="M60.65,32.4c-.08,1.74-1.49,3.1-3.19,3.1-1.67,0-3.1-1.33-3.18-3.04-.02-.42,.16-.85,.2-1.28,.02-.21-.01-.48-.14-.63-.38-.44-.81-.83-1.22-1.24-.64-.64-.73-1.16-.3-1.61,.42-.44,1.01-.35,1.61,.25,.38,.38,.79,.74,1.14,1.15,.28,.32,.53,.34,.92,.2,2.05-.72,4.27,.94,4.16,3.09Zm-1.91-.07c0-.71-.52-1.26-1.23-1.28-.75-.02-1.32,.51-1.33,1.25,0,.71,.52,1.26,1.23,1.29,.74,.02,1.32-.52,1.33-1.25Z" fill="#6ebe44"/>
      <path d="M12.67,16.48c2.75,.11,4.98,2.22,5.36,5.06,.35,2.59-1.37,5.25-3.91,6.02-.47,.14-.97,.21-1.46,.27-.74,.09-1.17-.2-1.25-.79-.08-.59,.36-.94,1.09-1.1,.73-.16,1.51-.35,2.12-.76,1.33-.89,1.83-2.51,1.43-4.01-.41-1.52-1.7-2.62-3.3-2.82-.06,0-.12-.01-.19-.02-.78-.07-1.2-.43-1.17-1.01,.04-.6,.47-.89,1.27-.86Z" fill="#6ebe44"/>
      <path d="M18.77,40.25c1.2,0,2.41,0,3.61,0,.12,0,.25,0,.37,0,.83,.02,1.28,.36,1.26,.97-.02,.57-.48,.92-1.25,.93-.75,0-1.49,0-2.24,0-1.81,0-3.61-.01-5.42,0-1.59,.01-2.73,1.08-2.9,2.67-.01,.12-.04,.25-.07,.37-.14,.55-.49,.81-1.05,.74-.55-.07-.78-.45-.79-.95-.06-2.32,1.98-4.56,4.3-4.66,1.39-.06,2.78-.01,4.17-.01,0-.01,0-.03,0-.04Z" fill="#6ebe44"/>
      <path d="M59.48,19.61c0,1.74-1.43,3.16-3.17,3.16-1.76,0-3.2-1.45-3.19-3.21,0-1.73,1.45-3.16,3.18-3.17,1.75,0,3.19,1.45,3.18,3.22Zm-3.18,1.25c.69,0,1.28-.56,1.3-1.24,.03-.69-.58-1.3-1.29-1.3-.69,0-1.28,.55-1.31,1.23-.03,.68,.59,1.31,1.3,1.31Z" fill="#6ebe44"/>
      <path d="M62.6,43.51c0,1.78-1.43,3.2-3.2,3.18-1.75-.02-3.16-1.43-3.16-3.17,0-1.75,1.49-3.23,3.21-3.2,1.74,.03,3.15,1.45,3.15,3.19Zm-3.18-1.26c-.69,0-1.28,.56-1.3,1.24-.02,.69,.59,1.3,1.3,1.3,.69,0,1.28-.56,1.29-1.24,.02-.7-.58-1.3-1.3-1.3Z" fill="#6ebe44"/>
      <path d="M55.39,50.11c1.75,.02,3.17,1.44,3.17,3.17,0,1.73-1.52,3.22-3.24,3.19-1.73-.03-3.17-1.49-3.18-3.19,0-1.75,1.47-3.18,3.24-3.17Zm1.24,3.15c0-.7-.56-1.25-1.26-1.26-.72,0-1.3,.57-1.29,1.29,0,.73,.58,1.27,1.32,1.25,.71-.02,1.23-.57,1.23-1.28Z" fill="#6ebe44"/>
      <path d="M23.93,48.86c-.08,2.75-2.09,4.79-4.54,4.86-.58,.02-1.01-.32-1.06-.83-.06-.55,.23-.91,.83-1.03,.26-.05,.54-.07,.8-.13,1.2-.3,2.11-1.5,2.07-2.71-.04-1.28-.93-2.37-2.16-2.64-.24-.05-.49-.07-.74-.12-.54-.1-.85-.48-.81-1,.04-.52,.44-.85,1.03-.86,1.81,0,3.64,1.29,4.24,3.03,.19,.54,.26,1.12,.33,1.42Z" fill="#6ebe44"/>
      <path d="M32.92,26.5c0,2.16-1.66,3.93-3.81,4.07-.76,.05-1.17-.23-1.22-.83-.05-.59,.32-.95,1.06-1.04,1.54-.18,2.47-1.55,1.96-2.94-.3-.82-.9-1.32-1.78-1.45-.16-.03-.33-.05-.49-.08-.56-.13-.8-.49-.73-1.05,.06-.5,.47-.8,1.02-.79,2.21,.06,3.99,1.89,3.99,4.11Z" fill="#6ebe44"/>
      <path d="M18.72,29.77c-.3-.06-.68-.03-.87-.2-.24-.22-.44-.61-.44-.93,0-.46,.39-.7,.83-.79,.53-.1,1.08-.11,1.58-.29,1.89-.65,3-1.98,3.28-3.97,.03-.23,.06-.45,.1-.68,.09-.54,.47-.87,.98-.84,.49,.03,.87,.41,.88,.95,.02,1.34-.35,2.59-1.12,3.68-1.26,1.79-2.97,2.85-5.2,3.05Z" fill="#6ebe44"/>
      <path d="M12.39,35.19c-1.37,.11-2.84-.14-4.08-1.24-1.04-.93-1.59-2.1-1.69-3.49-.04-.63,.29-1.07,.81-1.14,.56-.07,.95,.28,1.06,.95,.34,2.11,1.42,3.03,3.54,3.03,.71,0,1.41-.01,2.12,0,.67,.02,1.07,.4,1.06,.97-.01,.55-.39,.89-1.04,.9-.52,.02-1.04,0-1.77,0Z" fill="#6ebe44"/>
      <path d="M22.06,7.95c.71-.03,1.17,.3,1.2,.88,.04,.55-.39,.95-1.1,1.01-1.31,.12-1.94,.67-2.21,1.95-.14,.66-.57,1.02-1.1,.92-.55-.1-.83-.57-.75-1.24,.23-1.96,1.89-3.44,3.96-3.52Z" fill="#6ebe44"/>
      <path d="M28.8,40.25c.6,0,1.2-.02,1.8,0,.63,.03,1.03,.41,1.03,.94,0,.52-.43,.93-1.04,.94-1.22,.02-2.44,.02-3.66,0-.62,0-1.03-.4-1.05-.92-.02-.56,.38-.92,1.06-.96,.04,0,.08,0,.12,0,.58,0,1.16,0,1.74,0,0,0,0,0,0,0Z" fill="#6ebe44"/>
    </g>
  </g>
</svg>