<?xml version="1.0" encoding="UTF-8"?>
<svg id="Layer_2" data-name="Layer 2" xmlns="http://www.w3.org/2000/svg" viewBox="0 0 354.28 73.1">
  <g id="Layer_1-2" data-name="Layer 1">
    <g>
      <path d="M13.36,57.12c-3.02-1.4-5.36-3.38-7.04-5.92-1.68-2.54-2.63-5.53-2.86-8.98l10.4-.48c.23,1.9,.77,3.53,1.63,4.86,.86,1.34,2.01,2.35,3.43,3.03s3.16,1.02,5.2,1.02c2.63,0,4.63-.48,6.02-1.43,1.38-.95,2.07-2.33,2.07-4.15,0-1.18-.27-2.19-.82-3.03-.54-.84-1.6-1.6-3.16-2.28-1.56-.68-3.82-1.36-6.77-2.04-4.26-.95-7.6-2.02-10.03-3.2-2.43-1.18-4.22-2.65-5.37-4.42-1.16-1.77-1.73-4.03-1.73-6.8s.72-5.38,2.18-7.58c1.45-2.2,3.54-3.91,6.26-5.13,2.72-1.22,5.94-1.84,9.66-1.84s7.24,.69,10.03,2.07c2.79,1.38,4.97,3.3,6.56,5.75,1.59,2.45,2.56,5.28,2.92,8.5l-10.34,.54c-.18-1.68-.66-3.14-1.43-4.39-.77-1.25-1.83-2.21-3.16-2.89-1.34-.68-2.91-1.02-4.73-1.02-2.31,0-4.14,.52-5.47,1.56-1.34,1.04-2.01,2.4-2.01,4.08,0,1.22,.29,2.22,.88,2.99,.59,.77,1.59,1.45,2.99,2.04,1.4,.59,3.47,1.16,6.19,1.7,4.4,.91,7.9,2.04,10.51,3.4,2.61,1.36,4.48,2.98,5.61,4.86,1.13,1.88,1.7,4.09,1.7,6.63,0,2.99-.76,5.59-2.28,7.79-1.52,2.2-3.68,3.89-6.49,5.07-2.81,1.18-6.12,1.77-9.93,1.77-4.08,0-7.63-.7-10.64-2.11Z" fill="#231f20"/>
      <path d="M43.93,21.69h9.18l.34,8.77-.95-.41c.5-1.9,1.26-3.55,2.28-4.93,1.02-1.38,2.25-2.44,3.71-3.16,1.45-.72,3.04-1.09,4.76-1.09,2.99,0,5.44,.87,7.34,2.62,1.9,1.75,3.13,4.14,3.67,7.17l-1.29,.07c.63-3.17,1.91-5.61,3.84-7.31,1.93-1.7,4.29-2.55,7.11-2.55,2.49,0,4.67,.52,6.53,1.56,1.86,1.04,3.27,2.61,4.25,4.69,.97,2.09,1.46,4.6,1.46,7.55v23.46h-10.2v-20.6c0-2.9-.44-5.05-1.33-6.46-.88-1.4-2.28-2.11-4.18-2.11-1.22,0-2.27,.34-3.13,1.02-.86,.68-1.53,1.68-2.01,2.99-.48,1.32-.71,2.88-.71,4.69v20.47h-9.18v-20.47c0-2.9-.42-5.08-1.26-6.53-.84-1.45-2.23-2.18-4.18-2.18-1.22,0-2.28,.34-3.16,1.02-.88,.68-1.55,1.68-2.01,2.99-.45,1.32-.68,2.88-.68,4.69v20.47h-10.2V21.69Z" fill="#231f20"/>
      <path d="M100.27,56.3c-2.33-1.77-3.5-4.19-3.5-7.28s.97-5.64,2.92-7.41c1.95-1.77,4.96-3.06,9.04-3.88l11.76-2.31c0-2.36-.53-4.14-1.6-5.34-1.07-1.2-2.62-1.8-4.66-1.8-1.9,0-3.4,.44-4.49,1.33-1.09,.88-1.81,2.19-2.18,3.91l-10.2-.48c.68-3.99,2.47-7.01,5.37-9.08,2.9-2.06,6.73-3.09,11.49-3.09,5.44,0,9.54,1.29,12.31,3.88,2.76,2.58,4.15,6.37,4.15,11.36v12.44c0,1,.16,1.68,.48,2.04,.32,.36,.84,.54,1.56,.54h1.02v7c-.36,.09-.9,.18-1.6,.27-.7,.09-1.39,.14-2.07,.14-2.49,0-4.48-.63-5.95-1.9-1.47-1.27-2.21-3.44-2.21-6.53l.88,.68c-.68,2.49-2.18,4.48-4.49,5.95s-5.24,2.21-8.77,2.21c-3.85,0-6.95-.88-9.28-2.65Zm16.18-5.34c1.29-.66,2.29-1.62,2.99-2.89,.7-1.27,1.05-2.76,1.05-4.49v-1.77l-8.3,1.77c-1.68,.32-2.92,.85-3.74,1.6s-1.22,1.71-1.22,2.89c0,1.27,.4,2.23,1.19,2.89,.79,.66,1.98,.99,3.57,.99,1.68,0,3.16-.33,4.45-.99Z" fill="#231f20"/>
      <path d="M134.3,21.69h9.66l.34,10.61-.75-.2c.59-3.67,1.63-6.32,3.13-7.96,1.5-1.63,3.56-2.45,6.19-2.45h3.33v8.43h-3.33c-1.95,0-3.54,.26-4.76,.78-1.22,.52-2.13,1.33-2.72,2.41-.59,1.09-.88,2.54-.88,4.35v20.47h-10.2V21.69Z" fill="#231f20"/>
      <path d="M155.18,21.69h25.64v7.62h-25.64v-7.62Zm8.5,33.83c-1.77-1.74-2.65-4.52-2.65-8.33V13.12h10.2V45.97c0,1.72,.36,2.91,1.09,3.57,.72,.66,1.86,.99,3.4,.99h5.1v7.62h-8.84c-3.76,0-6.53-.87-8.3-2.62Z" fill="#231f20"/>
      <path d="M182.17,9.86h33.59v8.7h-23.26v11.08h22.44v8.57h-22.44v11.22h23.8v8.7h-34.14V9.86Z" fill="#6ebe44"/>
      <path d="M218.28,21.69h9.18l.41,10.68-1.29-.34c.5-3.85,1.8-6.67,3.91-8.47,2.11-1.79,4.77-2.69,7.99-2.69,3.9,0,6.94,1.24,9.11,3.71,2.18,2.47,3.26,5.84,3.26,10.1v23.46h-10.2v-20.06c0-3.08-.41-5.37-1.22-6.87-.82-1.5-2.27-2.24-4.35-2.24s-3.76,.78-4.9,2.35c-1.13,1.56-1.7,3.82-1.7,6.77v20.06h-10.2V21.69Z" fill="#6ebe44"/>
      <path d="M253.1,21.69h9.66l.34,10.61-.75-.2c.59-3.67,1.63-6.32,3.13-7.96s3.56-2.45,6.19-2.45h3.33v8.43h-3.33c-1.95,0-3.54,.26-4.76,.78-1.22,.52-2.13,1.33-2.72,2.41-.59,1.09-.88,2.54-.88,4.35v20.47h-10.2V21.69Z" fill="#6ebe44"/>
      <path d="M280.87,56.61c-2.79-1.56-4.94-3.78-6.46-6.66-1.52-2.88-2.28-6.22-2.28-10.03s.76-7.15,2.28-10.03c1.52-2.88,3.67-5.1,6.46-6.66s6.04-2.35,9.76-2.35,6.9,.78,9.69,2.35,4.95,3.79,6.49,6.66c1.54,2.88,2.31,6.22,2.31,10.03s-.77,7.15-2.31,10.03c-1.54,2.88-3.71,5.1-6.49,6.66-2.79,1.56-6.02,2.35-9.69,2.35s-6.97-.78-9.76-2.35Zm15.64-8.43c1.38-1.97,2.07-4.73,2.07-8.26s-.69-6.29-2.07-8.26c-1.38-1.97-3.34-2.96-5.88-2.96s-4.51,.99-5.92,2.96c-1.41,1.97-2.11,4.73-2.11,8.26s.7,6.35,2.11,8.3c1.4,1.95,3.38,2.92,5.92,2.92s4.5-.99,5.88-2.96Z" fill="#6ebe44"/>
      <path d="M312.73,55.83c-1.63-1.54-2.45-3.94-2.45-7.21V9.86h10.2V47.53c0,1.09,.25,1.86,.75,2.31,.5,.45,1.22,.68,2.18,.68h2.45v7.62h-6.05c-3.08,0-5.44-.77-7.07-2.31Z" fill="#6ebe44"/>
      <path d="M328.71,55.83c-1.63-1.54-2.45-3.94-2.45-7.21V9.86h10.2V47.53c0,1.09,.25,1.86,.75,2.31,.5,.45,1.22,.68,2.18,.68h2.45v7.62h-6.05c-3.08,0-5.44-.77-7.07-2.31Z" fill="#6ebe44"/>
      <path d="M343.26,47.74h11.02v10.4h-11.02v-10.4Z" fill="#6ebe44"/>
    </g>
  </g>
</svg>